# xmcd
#
# Track frame offsets:
#	150
#	10793
#	21714
#	32674
#	43516
#	53933
#	64758
#	74323
#	83730
#	94598
#	105618
#	115789
#	125671
#	139329
#	148955
#	162554
#	173498
#	184129
#	193964
#	205339
#	213360
#	224141
#	235735
#	245137
#	253870
#	265340
#	275186
#	284797
#	297756
#	308671
#
# Disc length: 4263 seconds
#
# Revision: 1
# Processed by: cddbd v1.5.2PL0 Copyright (c) Steve Scherf et al.
# Submitted via: audiograbber 1.83.01
#
DISCID=e810a51e
DTITLE=Hey Dj - Play Some Boppers!
DYEAR=1900
DGENRE=
TTITLE0=Ray Harris - Come On Little Mama
TTITLE1=Johnny Kidd and The Pirates - Castin My Spell
TTITLE2=I Smell A Rat - Joung Jessie
TTITLE3=Herbie Duncan - Hot Lips Baby
TTITLE4=Frank Deaton - Just A Little Bit More
TTITLE5=Hank Mizell - I'm Ready
TTITLE6=Derrell Felts - Shake It Up and Move
TTITLE7=Kenny Parchman - Love Crazy Baby
TTITLE8=Franklin Stewart - That Long Black Train
TTITLE9=Papa Lightfoot - Mean Ol'train
TTITLE10=Lou Millet - Slip, Slip, Slippin' In
TTITLE11=Ronnie Self - Pretty Bad Blues
TTITLE12=Charlie Feathers - That Certain Female
TTITLE13=Brad Suggs With Swingstreamers - Bop, Baby, Bop
TTITLE14=Tarheel Slim - Number Nine Train
TTITLE15=Keith Anderson - Hot Guitars
TTITLE16=Johnny Watson - I'm Not Crazy
TTITLE17=Andy Anderson - Johnny Valentine
TTITLE18=Slim Harpo - Shake Your Hips
TTITLE19=Hardrock Gunter and The Rhythm Rockers - Whoo! I Mean Whee!
TTITLE20=Al Urban - Gonna Be Better Times
TTITLE21=Tennesee Thompson - Saturday Ball
TTITLE22=Long John Roller - Long John's Flagpole Rock
TTITLE23=Werly Fairburn - Everybody's Rockin'
TTITLE24=Jimmy Wages - Miss Pearl
TTITLE25=Alvis Wayne - Lay Your Head On My Shoulder
TTITLE26=Bunker Hill - You Can't Make Me Doubt My Baby
TTITLE27=Hank Mizell - Jugle Rock
TTITLE28=Groovey Joe Poovey - Moved Around
TTITLE29=Hasil Adkins - Truly Ruly
EXTD=
EXTT0=
EXTT1=
EXTT2=
EXTT3=
EXTT4=
EXTT5=
EXTT6=
EXTT7=
EXTT8=
EXTT9=
EXTT10=
EXTT11=
EXTT12=
EXTT13=
EXTT14=
EXTT15=
EXTT16=
EXTT17=
EXTT18=
EXTT19=
EXTT20=
EXTT21=
EXTT22=
EXTT23=
EXTT24=
EXTT25=
EXTT26=
EXTT27=
EXTT28=
EXTT29=
PLAYORDER=
